<?xml version="1.0" encoding="UTF-8"?>
<svg id="Capa_2" data-name="Capa 2" xmlns="http://www.w3.org/2000/svg" viewBox="0 0 338.65 259.15">
  <defs>
    <style>
      /* Palette: accent rose and variants */
      .cls-1 { fill: #F4A6C1; }
      .cls-2 { fill: #D07A99; }
      .cls-3 { fill: #FFDFF0; }
      .cls-4 { fill: #F7C7D9; }
      .cls-5 { fill: #FFF1F6; }
      .cls-6 { fill: #E89CB0; }
    </style>
  </defs>
  <g id="Capa_1-2" data-name="Capa 1">
    <path class="cls-4" d="M40.75,191.75c-17.7,6-15.71,21.67-19.11,21.42-1.12-.08-2.22-1.01-2.57-2.42C14.44,192.07-.14,193.34,0,189.91c.02-.54.69-1.69,1.5-1.95,18.57-6.01,15.99-22.61,20.11-21.84,3.46.65,2.1,16.54,19.46,21.63.92.27,2.02,1.44,1.91,2.16-.12.76-1.33,1.53-2.23,1.84Z"/>
    <path class="cls-1" d="M338.65,180.56c-19.25,7.44-17.36,21.11-20.14,21.1-3.04,0-1.1-13.94-20.34-20.9,19.48-6.51,17.39-21.59,20.42-20.68,3.63,1.09-.13,13.49,20.06,20.48Z"/>
    <circle class="cls-3" cx="55.49" cy="228.39" r="8.23"/>
    <circle class="cls-3" cx="290.38" cy="222.55" r="8.3"/>
    <path class="cls-4" d="M167.69,257.98l-65.12-54.06c-16.06-13.33-30.61-26.85-44.23-42.57-25.95-29.97-43.79-70.53-28.83-109.86C41.34,20.28,72.07-.68,105.69,2.36c26.7,2.42,48.99,18.84,63.24,41.56C182.88,20.87,204.32,4.15,231.05.61c29.13-3.85,56.91,10.74,72.46,35.27,26.37,44.73,9.31,91.33-21.68,128.26-14.03,16.72-29.15,31.14-46.08,44.96l-57.17,46.69c-2.45,2-7.45,5.04-10.89,2.18ZM86.81,171.24c15.98,15.19,31.76,28.4,48.38,42.14l36.19,29.92,65.92-55.66c17.48-14.76,32.33-31.19,45.14-49.99s19.74-38.1,18.42-59.71c-1.14-18.69-8.21-35.8-21.95-48.19-18.64-16.81-44.54-20.02-66.84-8.52-18.29,9.44-31.03,25.97-37.52,45.5-.8,2.42-2.67,3.61-4.9,3.52-1.74-.07-3.95-1.16-4.76-3.49-5.6-15.95-15.07-29.47-28.97-39.27-10.5-7.41-22.54-12.24-35.74-12.11-30.86.3-55.44,22.87-60.38,53.04-6.63,40.49,18.57,75.93,47.03,102.83Z"/>
    <path class="cls-2" d="M172.08,155.41c-.84.98-1.09,1.27-2.39,1.04-.34-.06-.43-.5-.56-.99,1.48-.27,2.24-.27,2.95-.05Z"/>
    <path class="cls-3" d="M169.13,155.46c.14.49.22.93.56.99,1.29.23,1.55-.06,2.39-1.04,1.15.35,2.19.84,2.28,1.83.61,7.38,1.34,14.62.73,22.05-.23,2.79-3.11,4.3-5.29,3.91-5.32-.95-3.91-21.4-3.5-26.48.08-.99,2.51-.97,2.83-1.26Z"/>
    <path class="cls-3" d="M186.01,117.48c-.04,1.24.67,1.63.8,2.11,1.52,5.54-.24,10.3-.97,15.87,3.42,1.23,6.8,2.37,10.33,3.23,3.44-3.26,7.54-13,11.46-8.03,2.11,2.68-5.21,6.59-4.25,10.3.45,1.73,2.05,2.84,1.21,4.48-2.62,5.11-5.51-.34-7.31,6.3-.46,1.7-1.56,2.93-2.89,3.2-1.43.29-2.98-.17-3.65-1.92-.87-2.26,1.23-4.55,1.31-6.76-1.79-1.65-7.02-3.91-9.62-2.92l-10.35,12.07c-.71-.21-1.47-.22-2.95.05l-10.92-9.95-14.71,10.11c-2.27,1.56-5.11,1.17-6.44-1.31-1.06-1.98-.36-4.3,1.98-5.92l15.32-10.59c-2.91-4.64-1.07-13.98-4.46-13.4-.79.13-1.62,1.76-2.6,2.03-2.13.59-14.11-1.76-11.49-8.02,2.06-4.93,12.65,1.84,16.16,1.38,1.99-3.06,4.45-4.95,6.82-5.3,7.91-1.15,8.04,6.07,12.2,1.85,2.27-2.3,5.09-3.4,8.15-3.17,2.66.2,4.56,2.65,6.88,4.3ZM182.06,131.28c1.33-1.73,2.48-3.14,1.7-5.13-.66-1.69-.95-3.86-4.01-4.01.41,7.26-10.02,19.27-7.88,20.24s7.99-8.24,10.19-11.1ZM166.85,141.34l-8.42-16.95c-1.79-.23-2.83,1.02-3,1.79-.23,1.02-.78,2.62.29,3.55,4.22,3.71,6.92,8.37,11.14,11.6Z"/>
    <path class="cls-5" d="M224.4,114.62c-3.33,1.41-7.74,10.17-10.65,8.53-4.99-2.82,3.5-7.96,3.55-10.49-6.05-2.43-8.71-7.14-8.29-12.66s4.56-8.66,10.1-10.67c6.75-2.45-3.1-11.96,2.04-15.26,2.38-1.53,4.68-.44,5.94,2.3,2.45,5.31,3.04-1.51,14.04,1.6l20.89-22.53c1.57-1.69,3.65-2.62,5.42-.86,1.21,1.21,1.62,3.63.07,5.41l-20.67,23.71c3.32,5.89,3.32,12.17.67,18.8,4.07,3.32,16,3.93,13.77,9.89-2.65,7.09-11.41-1.33-17.28-1.81-4.26,6.65-12.11,7.7-19.56,4.04ZM217.76,107.5c5.63,3.68,12.43,3.88,18.92,3.53,3.82-6.37,6.69-13.17,5.43-20.42-.79-4.55-4.09-8.38-8.37-8.11-3.72.24-7.27,3.26-7.91,7.49-1.15,7.67-8.96.15-11.78,8.25-1.11,3.19.23,6.98,3.71,9.26Z"/>
    <path class="cls-6" d="M109.13,83.86c-11.03,3.84-15.22,10.63-18.57,20.49-3.53-9.69-7.55-16.67-16.52-18.96-.51-.75-1.14-1.07-1.25-1.48-.22-.85.74-1.68,1.66-1.96,12.93-3.94,13.78-16.08,15.43-17.46.46-.38,1.92.42,2.06,1.11,1.87,9.46,8.11,13.82,17.2,18.27Z"/>
    <path class="cls-5" d="M186.81,119.59c-.13-.48-.84-.88-.8-2.11,6.15-4.68,12.56-8.72,20.17-12.27,1.08,1.8,2.9,4.72,2.64,6.92-5.47,4.75-12.09,8.24-18.25,11.62-.82-1.34-1.06-2.36-1.28-2.9-.36-.92-1.35-2.11-2.48-1.25Z"/>
  </g>
</svg>