<?xml version="1.0" encoding="UTF-8"?>
<svg id="Capa_2" data-name="Capa 2" xmlns="http://www.w3.org/2000/svg" viewBox="0 0 286 237.72">
  <defs>
    <style>
      .cls-1 {
        fill: #464849;
      }

      .cls-2 {
        fill: #717373;
      }

      .cls-3 {
        fill: #f8f9f9;
      }

      .cls-4 {
        fill: #fbfbfb;
      }

      .cls-5 {
        fill: #fafbfb;
      }

      .cls-6 {
        fill: #d7d8d8;
      }

      .cls-7 {
        fill: #0d0d0d;
      }

      .cls-8 {
        fill: #171819;
      }

      .cls-9 {
        fill: #0f0f0f;
      }

      .cls-10 {
        fill: #888989;
      }

      .cls-11 {
        fill: #fefefe;
      }

      .cls-12 {
        fill: #e4e5e5;
      }
    </style>
  </defs>
  <g id="Capa_1-2" data-name="Capa 1">
    <path class="cls-12" d="M34.26,186.88l-6.92,16.95c-9.13-21.35-3.16-19.95-27.34-28.49.67-2.82,2.73-2.07,4.76-2.69,16.99-5.2,18.37-11.98,22.76-29.67,2.93,2.07,3.09,5.26,3.92,8.08,4.75,16.14,8.6,17.95,24.16,23.75-6.57,2.57-18.53,5.18-21.34,12.07Z"/>
    <path class="cls-10" d="M270.47,77.68c1.86-4.07,6.53-4.08,11.21-6.97-9.9-3.02-13.95-9.28-16.66-18.79-2.73,9.71-6.3,16.27-15.7,18.17,11.5,8.29,9.12,2.05,15.31,17.36,2.14-3.36,2.2-7.03,5.85-9.77-2.57,4.48-3.13,8.23-5.11,12.5-1.36-.19-2.2-2.04-2.58-3.33-2.75-9.15-8.94-14.35-19.36-16.07,10.36-2.58,16.14-7.05,18.85-16.42.65-2.26.95-5.41,3.88-7.1,1.38,8.27,3.7,15.96,10.73,20.34,2.86,1.78,5.89,1.24,9.11,3.95-5.98.83-10.26,4.42-15.52,6.14Z"/>
    <path class="cls-6" d="M282.07,143.4c-3.61,1.24-7.32.47-8.23-2.26s-.27-5.87,2.57-7.66,5.68-.51,7.29,1.8,1.81,6.95-1.63,8.13Z"/>
    <path class="cls-6" d="M38.73,101.48c3.13-1.69,6.87-.76,7.78,1.94.87,2.57.58,5.42-2.25,7.32-2.1,1.41-4.73.74-6.58-1.5-1.6-1.93-1.69-6.28,1.05-7.76Z"/>
    <path class="cls-10" d="M87.51,57.81c-1.1-4.85,7.51-10.62,13.64-12.57-9.78-2.08-13.21-8.73-15.53-18.61-1.33,9.81-5.81,16.14-15.08,18.81,7.72,6.07,11.2,3.26,14.52,15.6,1.6-.41,1.08-1.86,2.45-3.22l-1.84,9.27c-2.13-1.19-2.11-3.48-2.46-5.61-2.69-16.17-17.72-11.32-16.24-16.12,19.17-7.13,11.98-9.02,18.57-22.11,2.07,1.92,2.25,4.76,2.78,6.99,3.82,15.98,17.1,11.52,15.87,17.04-5.13.77-10.82,1.63-14.01,6-1.1,1.51-.77,4.01-2.67,4.54Z"/>
    <path class="cls-10" d="M58.76,81.85c1.66-.36,3.17,1.88,5.1,1.76,2.99-.18,4.19-6.26,2.12-7.47-1.67-.98-4.57-.35-5.91.08-1.78.57-1.28,2.97-1.31,5.63-1.91-3.59.04-6.82,2.78-7.77,2.42-.84,6.02.67,6.28,3.57.31,3.46-.16,6.74-3.56,7.19-2.09.28-5.4-.17-5.49-2.99Z"/>
    <path class="cls-2" d="M264.63,212.72v-20.98c1.82.64,1.3,17.41,0,20.98Z"/>
    <path class="cls-3" d="M58.76,81.85c.03-2.67-.48-5.07,1.31-5.63,1.35-.43,4.25-1.05,5.91-.08,2.07,1.22.87,7.29-2.12,7.47-1.94.12-3.45-2.12-5.1-1.76Z"/>
    <path class="cls-12" d="M236.69,38.98c-.17,1.4-1.03,3.27-2.26,3.33-2.32-3.95-2.18-9.4-5.8-11.41l-9.16-5.06c3.36-2.24,6.77-3.96,9.65-6.44,3.77-3.26,3.39-11.71,6.03-11.3,1.99.31.42,15.52,14.23,15.94.43.01.36,1.98.22,2.37-.4,1.12-11.5.94-12.93,12.57Z"/>
    <path class="cls-4" d="M270.47,77.68c-3.65,2.73-3.71,6.41-5.85,9.77-6.18-15.31-3.81-9.07-15.31-17.36,9.4-1.9,12.97-8.46,15.7-18.17,2.71,9.51,6.76,15.77,16.66,18.79-4.68,2.89-9.35,2.9-11.21,6.97Z"/>
    <path class="cls-4" d="M87.51,57.81c-1.37,1.36-.85,2.81-2.45,3.22-3.32-12.34-6.8-9.53-14.52-15.6,9.28-2.67,13.75-9.01,15.08-18.81,2.32,9.88,5.74,16.53,15.53,18.61-6.14,1.96-14.74,7.72-13.64,12.57Z"/>
    <path class="cls-9" d="M264.63,191.74v20.98c-1.37,3.77-.39,8.78-4.14,12.07-1.48,1.29-3.71,4-5.77,4.84-19.69,8.04-46.71,7.07-67.04,7.07h-33.98l-28.01-.28-12.03-.85c-15.5-1.09-25.93-1.26-41.22-4.47-12.43-2.61-21.08-9.62-19.7-23.41l3.01-29.96c1.83-18.19,6.24-72.93,19.35-84.5,7.5-6.62,18.13-6.91,27.24-5.86,3.31.38,3.27-4.49,3.41-6.41,1.81-24.49,10.58-64.67,34.47-76.55,19.41-9.66,42.59-2.84,55.18,14.92,8.9,12.57,13.94,27.05,16.5,42.31l3.16,18.87c.25,1.52-1.54,5.84.85,6.01,9.59.66,19.56,0,28.32,4.87,10.37,5.77,11.44,22.14,12.91,31.98l3.47,23.39,3.12,28.04c.66,5.96.9,11.42.9,16.94ZM157.33,26.16c10.52-3.13,19.97,13.3,23.42,20.44,7.22,14.96,10.37,30.74,12.72,47.29.75,5.25,2.08,11.89,7.57,13.7,6.71,2.22,12.08-4.38,12.12-10.65.09-13.25-1.7-25.28-4.39-38.04-5.48-25.92-17.1-52.21-46.36-56.82-16.19-.69-30.58,8.25-38.36,22.34-2.98,5.4-5.67,10.32-7.54,16.37-5.61,18.16-8.47,36.86-8.93,56-.08,3.41.24,6.14,2.38,8.3,1.79,1.8,4.33,3.8,7.69,2.82,3.77-1.1,6.48-4.46,8.57-7.66l5.52-30.38c2.38-13.08,10.62-39.26,25.6-43.72ZM178.02,87.16c3.95.17,7.46,2.04,10.91-.46-1.53-14.21-5.53-27.71-11.55-40.49-1.71-3.63-4.28-6.29-6.32-9.8-2.25-3.87-6.66-7.44-11.34-7.5-8.58-.12-13,10.48-17.48,15.83-5.38,13.62-8.85,27.81-10.56,42.83,3.58,1.3,6.72-.5,10.12-.57,12.03-.24,23.73-.38,36.23.16ZM86.75,90.78l-3.93,1.1c-10.2,2.87-15.02,20.52-16.15,29.72-.19,1.57-1.59,3.42-1.15,5.19-.09.8-.92,1.95-.79,3,.1.84.19,2.39-.07,3.18-1.34,4.16-1.89,8.51-1.88,12.89v1.09c-2.76,4.23-3.33,24.49-3.94,29.84-.99,8.64-2.29,17.34-2.83,26.08-.27,4.42-.67,8.6.5,12.83,1.07,3.86,2.91,8.03,7.39,8.97,4.63,4.72,11.73,4.18,17.81,5.12,4.11.64,8.03,1.28,12.25,1.49,5.64.29,11,1.81,16.69,1.27,2.52-.24,6.54,0,9,.32,7.1.95,14.4,1.47,22.2,1.51l58.8.25c5.67.02,10.86-.99,15.93-.96h2.08s2.12-.13,2.12-.13c9.47-.66,19.36-1,28.03-4.93,5.95-.19,11.17-4.69,11.99-10.61,2.53-3.53,1.83-8.09,1.83-12.28v-3c0-10.32-.51-20.78-2.04-30.96-.29-1.96.06-4.01-.35-5.99-.34-1.63,0-3.37-.57-5.01-.32-.93-.06-2.14-.19-3.12l-3.85-27.85c-.1-.7.22-1.66-.64-2,.44-1.65-.53-3.53-.73-5.15-.75-5.94-1.06-12.19-3.54-17.67-.01-5.15-4.11-9.78-9.01-11.16-.4-2.04-2.9-1.29-3.96-2.01-3.58-2.44-7.93-2.41-12.13-2.06-2.7.23-5.84-1.36-8.83.48-.99.61-.18,1.98-.31,2.55-.28,1.23.25,2.96.21,4.2-.05,1.34-.95,2.6-.23,4.22,1.36,3.06,4.01-.41,6.09,10.57-.56.95-.32,2.18-.76,3.12l-3.22,6.83c-9.29,7.99-22.53,8.93-31.24-.63-2.15-2.37-2.48-5.67-3.55-8.28l-.06-3c1.72-10.33,10.89-8.16,6.1-15.95l-.25-2.36c-.09-.88-1.33-.36-1.91-.74-1.87-1.23-4.26.31-6.08-.16-1.98-.51-3.79-1.2-5.98-.41-.8.29-2.06-.42-2.93-.36-1.33.09-2.67-.03-4-.04-7.69-.07-15.42-.47-23.07.36-2.19.24-4.5-.61-6.72.1-1.94.62-6.15-1.45-7.67.92s-1.13,6.56-1.21,9.3c-.04,1.24,2.55,1.52,2.95,1.88.74,1.97,1.77,3.82,2.87,5.6l-.26,7.95c-.56,1-1.37,2.54-1.62,3.71-1.64,2.15-4.67,3.48-5.28,6.25-2.15-.11-4.45.27-5.99,1.86-1.99-.18-3.97.08-5.96.09-.97,0-2.03.07-3-.03-1.65-.18-3.44-1.19-5.1-1.08-1.68-1.58-3.57-3-5.7-3.9-.32-.82-1.05-1.43-1.45-2.19-.8-1.57-1.25-3.36-2.52-4.64.5-2.28-.83-5.06-.17-7.34.49-1.65,2.54-2.97,1.97-4.97-.06-.21,0-.46-.07-.66,4.36,1.38,4.52-10.31,3.11-12.2-5.46-1.77-11.97-1.44-17.06,0ZM201.52,111.46c-8.8-2.67-8.2-11.88-12.41-5.27-4.25,6.67.1,14.48,7.18,17.04,5.46,1.98,10.41,2.43,15.3-.77,3.97-2.6,7.65-6.69,7.06-12.61-.19-1.96-1.22-3.52-2.65-4.16-2.99-1.34-7.39,7.93-14.49,5.77ZM129.53,118.95c3.45-3.65,4.08-12.64-1.06-14.06-3.37,1.82-7.01,6.68-11.37,6.8-4.39.12-8.05-3.26-11.56-5.93-5.23,2.82-3.42,10.95.63,14.62,6.84,6.21,16.55,5.77,23.37-1.44Z"/>
    <path class="cls-6" d="M187.68,236.69c.08.77-.92,1.02-1.96,1.02h-30.06c-1.04,0-2.03-.25-1.96-1.02h33.98Z"/>
    <path class="cls-11" d="M138.9,90.25c.13,2.03,1.43,2.79,3.32,2.64,1.78-.14,3.36-.78,3.41-2.74,7.64-.83,15.37-.42,23.07-.36-.48,1.94.67,2.18,2.5,2.1,1.29-.05,1.81-.56,1.49-2.07.87-.06,2.13.65,2.93.36.14,1.42,1.56,2.06,2.79,2.17,1.36.13,2.67-.54,3.19-1.77,1.81.47,4.21-1.07,6.08.16-.05.73-.18,1.58.12,2.43.26.74,1.28.8,2.04.67,4.79,7.79-4.38,5.63-6.1,15.95-.58.2-1.89.02-2.01.54-.18.77-.38,2.14.56,2.26l1.51.2c1.08,2.61,1.4,5.91,3.55,8.28,8.71,9.56,21.95,8.62,31.24.63,1.69-.24,4.32-.07,4.46-3.04.06-1.29,1.37-3.56-1.24-3.78.45-.95.2-2.18.76-3.12,7.64-1.36-.8-7.18,5.22-9.24,2.97.18,5.59,4.3,8.13,3.01.54-.27.96-1.16.83-2.12-.19-1.41-4.19-2.09-5.11-3.46.15-2.33-1.34-2.78-3.56-3.07-1.67-.22-2.81,1.7-3.99,2.39-2.39-.61-4.91-2.7-7.39-2.3.04-1.24-.49-2.97-.21-4.2,2.27-.66,10.49.43,9.14-3.02,4.2-.35,8.55-.38,12.13,2.06-.15,1.44-.82,3.4,1.34,3.14.95-.11,2.45.23,2.62-1.13,4.9,1.38,9,6.01,9.01,11.16-2.21,1.74-1.07,18.06,3.54,17.67.2,1.62,1.17,3.5.73,5.15-.25.22-.96.3-1.22.69-.36.54-.17,1.14.38,1.3.49.14,1.03-.04,1.48,0l3.85,27.85c-.69-.36-1.74.1-1.82.67-.11.86-.34,2.01.47,2.44.38.21,1.12-.07,1.54.02.57,1.63.23,3.37.57,5.01-1.73.17-2.76,1.72-2.26,3.24.45,1.35,1.19,2.71,2.61,2.75,1.53,10.18,2.04,20.65,2.04,30.96-.68-.07-1.86-.19-1.96.52-.13.9-.33,2.01.47,2.46.36.2,1.09-.06,1.5.02,0,4.19.7,8.76-1.83,12.28-1.94.23-2.97,1.89-4.07,3.72-1.28,2.13-4.29.93-5.86,1.98s-1.39,3.59-2.05,4.91c-8.67,3.93-18.56,4.27-28.03,4.93.34-.67-.04-1.58-.65-1.85s-1.25-.02-1.46.51c-.17.42.04,1.01,0,1.49h-2.08c-.06-1.57-1.87-3.18-3.88-2.66-3.87,1-7.24.29-11.1.19-7.9-.2-15.88,1.56-23.72-.05-2.64-.54-4.33-1.44-7.1-.11-3.8,1.83-8.35-.18-12.21.08-5.84.4-11.17,1-17.1-.2-3.7-.75-9.27,2.95-13.37-.98l1.5-5.94c.99-.17,1.9-.34,2.93-.93.63-.36.86-1.49.36-2.13-.83-1.08-2.13-1.11-3.17-1.26.05-.66.23-1.81-.51-1.96-1.03-.21-2.87-.37-2.58.95l-1.02.13c-.81-1.53-1.8-3.06-3.35-3.13-2.53-.12-4.43.57-4.3,3.08-.25.42-.93.67-1.12,1.1-3.29.67-5.86-.42-8.15-3.22-.71-.86-8.93-3.45-8.94.19-1.21.38-2.76.1-4,.56-1.41.53-.86,1.9-.68,3.15s.1,2.6,1.16,3.19c1.69.94,10.77,1.45,10.35-1.72l3.08-.57c2.1,1.66,5.02,1.52,7.21.07l5.84,2.01c-.17,1.82,1.51,4.36.08,6.14-1.01,1.25-3.58,1.35-3.13,3.2-2.46-.33-6.47-.56-9-.32.11-1.15.56-2.6-.5-2.86,0,0-15.96-2.19-16.19,1.59-4.22-.22-8.14-.85-12.25-1.49-.29-1.18-.35-2.76-1.22-3.5.74.64-12.9-5.68-16.59-1.62-4.48-.94-6.32-5.11-7.39-8.97,1.03-3.32,3.97-11.42-.5-12.83.54-8.74,1.84-17.45,2.83-26.08,3.81.4,3.74-11.68,4.2-14.02l1.89-9.65c.26-1.33,1.29-2.91.37-4.28-.51-.75-1.36-1.39-2.52-1.9v-1.09c5.16-.12,4.65-12.01,1.88-12.89.25-.78.17-2.33.07-3.18,1.25.26,2.26-.03,2.1-1.49-.1-.87-.07-1.77-1.31-1.5-.44-1.77.96-3.62,1.15-5.19,3.11-.02,4.3-2.88,5.14-5.75l3.63-12.47c.86-2.94,7.44-6.77,7.38-11.5l3.93-1.1c9.08,5.87,8.3-.25,13.53,3.12,3.52,2.26-4.31,3.42-3.45,6.56-4.65.53-10.01.88-13.14,4.94-.7.92-1.16,1.88-.57,2.69,2.43,3.3,4.47-5.47,13.68-3.47.32,1.48,1.09,2.79,1.99,3.99-.67,2.27.66,5.06.17,7.34-.25,1.15-2.32,2.36-.6,3.73.84.67,1.95,1.17,3.12.91.39.77,1.12,1.38,1.45,2.19-1.26.03-1.02,1.63-1.06,2.53-.05,1.16.91,1.69,2.2,2.12,1.93.65,3.38.15,4.55-.75,1.66-.11,3.46.9,5.1,1.08-.05.67-.22,1.88.52,2,.88.14,2.01.33,2.46-.46.2-.35-.06-1.09.02-1.5,1.99-.01,3.97-.27,5.96-.09.9,1.47,2.53,1.47,4.21,1.02,1.45-.39,1.48-1.52,1.78-2.88.62-2.77,3.64-4.1,5.28-6.25.95-.3,2.61-.06,3.18-.6-.14-1.32.87-2.61.1-3.15-.34-.24-1.28.15-1.67.04l.26-7.95c2-.26,2.64-2.42,1.34-3.98-.93-1.11-2.64-2.11-4.21-1.62-.4-.36-2.99-.63-2.95-1.88.08-2.74-.33-6.9,1.21-9.3s5.73-.3,7.67-.92ZM168.76,98.84c-.92.3-3.53.94-2.91,2.63s3.16,1.1,4.84,1.35c.24.83.46,2.05,1.49,2.12,1.27.09,2.37-.21,2.51-2.12,1.08-.05,2.22.06,3.3-.41,1.23-.54.79-2.23.49-3.39.11-.43.82-.97.71-1.55-.37-1.98-9.21-3.76-10.42,1.37ZM142.78,99.55c-.29.68-2.13.87-2.52,1.42-.52.74-.79,2.22.34,2.52,1.05.28,2.06.28,3.1.31-.04,1.73,1.28,2.01,2.45,2.18,2.32.35,3.21-.53,3.56-2.29,1.26-.71,5.99-.17,5.36-2.72-.35-1.42-4.21-2.36-5.63-1.95-1.01-.82-1.95-2.06-3.23-2.16-1.93-.15-2.9,1.1-3.42,2.67ZM240.61,124.26c2.03-4.77.7-9.19-2.03-12.82-2.69,4.15-1.6,9.79,2.03,12.82ZM78.04,124.8c-1.26-.11-2.29.28-2.36,1.44-.1,1.67-.39,3.81,2.22,3.5.41.42.96.94,1.46.98,3.02.23,3.93-9.01,3.69-12.26-4.12.42-3.37,3.84-5,6.35ZM244.55,144.39c2.59-2.96.55-12.87-2.21-11.92-3.24,1.11.43,11.47,2.21,11.92ZM217.59,140.56l-5.93.55c.31-1.74-1.29-1.26-2.51-1.38-1.51-.15-1.76.87-1.41,2.27-1.45,2.21-5.47,1.67-7.21,2.76-1.39-1.08-3.23-1.15-4.77-.25s-2.15,2.58-1.8,4.34c-10.44,6.5-13.18,19.64-12.17,31.92-3.4-.46-.37,10.15,2.82,9.89,1.79-.15,4.38,6.74,9.21,9.35-.31,1.32.34,2.68,1.02,3.67-.45,4.54,3.72,7.36,7.07,10.03l-.34,5.66c-3.91.92-8.6-.69-11.93,3.34,3.97,2.01,7.54.84,10.9,1.31-6.75,2.72,14.41.35,10.14-.17,1.77-.28,4.28.19,6.12.09.07.4.12.87.32,1.19.4.63,1.22.57,2.14.19,3.88-1.59,6.19,2.5,6.35-1.67.69-.43,1.83-.6,2.35-1.08,1.34-1.21-.32-2.07-.49-2.99-.36-1.99-.91-3.98-.95-5.98,1.83-1.93,4.91-1.99,7.06-3.97,1.39-1.29.83-3.5.79-4.89,4.01-1.55,9.7-2.3,13.13-5.21-.07,1.32,1.32,3.79.38,5.02-1.03,1.35-.23,2.99-1.02,4.19l-5.13,7.82c-.22.34-.33.83-.4,1.23-1.58-.09-4.91-.42-5.37,1.89-.3,1.54,2.02,1.83,2.96,1.54,1.09-.33,2.31-.95,2.6-2.36.75-.02,1.57.05,2.33-.38.55-.31.74-1.17.78-1.87,2.88-1.54,4.74-4.52,4.92-7.75.28-.85,1.39-1.89,1.15-3,.71-.06,1.22-.89,1.75-1.26.61-.42,1.73-.18,2.24-.4.94-.39,1.08-1.2.96-2.03-.15-1.05-2.11-1.37-2.8-2.04-2.16-2.23,5.66-15.04-.56-13.38-.82-2.27-2.55-4.22-.85-7.16.24-1.3-.66-3.3-.95-4.6.24-.65-.19-1.65.14-2.25.92-1.66,4.22-11.74-.17-9.99-.1-.22-.98-7.02-5.54-11.46-4.09-4-9.43-7.1-14.47-9.34,2.87-3.89-14.16-5.67-12.88-1.4ZM73.81,146.83c-.93.04-2.22.23-2.84,1.47-.35.71.38,1.91,1.47,3.12.62.7,1.95,1.9,2.32-.5,4.15-1.32,4.34-7.55,1.91-11.58-3.06,2.02-1.8,5.13-2.86,7.48ZM72.82,160.7c.01.44-.81.85-.95,1.25-4.74-.47-2.14,12.79.88,13.6,1.77.21,1.31-2.82,1.63-3.66.32-.82.93-1.61,1.43-2.34,1.95-.07,2.76-1.39,3.21-3.54s1.09-4.52-1.07-6.01c-1.38-.95-5.24-2.55-5.13.69ZM71.03,182.65c-.55,1.08-1.02,2.21-1.53,4.27-2.19.15-2.93,1.79-3.03,3.37-.21,3.56,4.3,7.43,4.71,7.48.49.05,1.24-.28,1.66-.99.26-.45-.19-1.07-.4-2.2.8-2.26,1.26-4.61,1.3-7.83.63-.05,1.09-.11,1.44-.19.54-.12.93-.73.57-1.31-.26-.4-.88-.48-2.01-.5l-.22-1.9c0-.24,1.29-1.09,1.09-1.54-.26-.59-1.81-1.06-2.39-1.1s-1.03,1.2-1.2,2.45ZM68.18,205.89c-.64,1.71-1.04,4.02-.19,5.8-.72.59-1.13,1.44-1.48,2.42-.43,1.23,1.1,1.78,2.13,2,.84.19,1.87-.08,3-.68l2.33.39c1.58,2.33,4.99,3.96,7.47,2.79,2.07-.97,5.22,1.6,7.67-.87-2.01-2.63-5.24-2.95-7.59-1.82l-5.71-3.15c-.69-.38-1.52-1.11-2.2-1.38-.25-2.25,1.15-5.48-1.09-7.07-.94-.66-2.27-1.17-3.22-1.16-1.07,0-.84,1.96-1.13,2.73ZM142.72,219.95c-.07.37-.75,1.02-1.12.96-1.06-.16-4.08-.13-3.68,1.75s3.51,1.24,4.7,1.52c.31.07.78.33,1.15.34-.03.46-.17,1.05-.06,1.66.08.45.78.74,1.49.55.86-.24.03-1.88.5-2.14,1.36-.54,3.56-.46,5,.02l.13,1.54c.05.63.79.87,1.37.56.77-.41.52-1.37.5-2.07,1.55-.36,3.74-.28,4.33-2.93-4.23-1.56-7.86-.81-11.32-1.87-.09-.43.2-1.18-.02-1.63-.37-.76-1.64-.66-2.47-.46-.78.18-.4,1.6-.49,2.2ZM175.68,224.63c-.31,1.51.15,2.09,1.49,2.16,1.74.09,2.74-.51,2.51-2.25.69-.17,1.28-.81,1.77-.81.98,0,1.69-2.25.7-2.5-5.24-1.32-11.09-1.04-17.14.27,2.78,4.21,7.23,2.31,10.68,3.13Z"/>
    <path class="cls-3" d="M157.33,26.16c-14.97,4.46-23.22,30.64-25.6,43.72l-5.52,30.38c-2.09,3.19-4.8,6.56-8.57,7.66-3.36.98-5.9-1.02-7.69-2.82-2.14-2.16-2.46-4.89-2.38-8.3.46-19.14,3.31-37.84,8.93-56,1.87-6.05,4.56-10.97,7.54-16.37,7.78-14.09,22.17-23.03,38.36-22.34,29.26,4.61,40.88,30.9,46.36,56.82,2.7,12.76,4.48,24.78,4.39,38.04-.04,6.27-5.41,12.87-12.12,10.65-5.49-1.82-6.82-8.46-7.57-13.7-2.36-16.56-5.5-32.33-12.72-47.29-3.44-7.14-12.9-23.57-23.42-20.44ZM157.91,13.39c-.63-3.34-8.41.39-7.8,1.57.23,4.2,8.05-.23,7.8-1.57ZM178.14,21.14c2.2-2.97-13.21-11.41-13.44-6.75-.04.84.77,1.29,1.91,1.58,6.31,1.61,9.33,8.15,11.53,5.17ZM144.79,16.31c-3.57,1.18-6.47,4.1-7.46,7.56,3.81,1.8,11.41-8.87,7.46-7.56ZM185.46,29.01c-.44-.98-1.56-.8-2.17-.66-2.09.49,4.42,14.53,6.73,13.11,2.43-1.49-3.13-9.28-4.56-12.46ZM133.22,29.72c-1.89-.2-7.55,11.26-4.53,13.54,2.1-1.64,8.09-13.16,4.53-13.54ZM192.64,47.77c-2.7,1.5,1.48,14,3.36,13.35,3.15-1.09-1.04-11.11-3.36-13.35ZM125.53,51.4c-1.6-4.05-7.01,13.82-3.74,13.95,3.64-3.51,4.33-8.74,3.74-13.95ZM201.22,70.76c-.19-1.11-2.2-.73-2.21-.15-.59,19.44,6.18,23.1,5.06,16.61l-2.85-16.46ZM120.7,76.33l-.61-3.25c-1.28-6.81-6.81,15.01-2.57,17.58,3.16-4.75,4.05-9.72,3.18-14.34Z"/>
    <path class="cls-3" d="M201.52,111.46c7.1,2.16,11.49-7.11,14.49-5.77,1.43.64,2.45,2.2,2.65,4.16.59,5.92-3.09,10.01-7.06,12.61-4.89,3.21-9.84,2.75-15.3.77-7.08-2.56-11.42-10.36-7.18-17.04,4.21-6.61,3.61,2.59,12.41,5.27Z"/>
    <path class="cls-3" d="M129.53,118.95c-6.81,7.21-16.53,7.64-23.37,1.44-4.05-3.67-5.86-11.8-.63-14.62,3.52,2.67,7.17,6.05,11.56,5.93,4.36-.12,8-4.98,11.37-6.8,5.14,1.42,4.52,10.41,1.06,14.06Z"/>
    <path class="cls-5" d="M129.6,224.04l-1.5,5.94c4.1,3.93,9.67.23,13.37.98,5.93,1.21,11.25.6,17.1.2,3.86-.26,8.41,1.75,12.21-.08,2.77-1.33,4.46-.43,7.1.11,7.85,1.6,15.82-.16,23.72.05,3.85.1,7.23.81,11.1-.19,2.01-.52,3.82,1.09,3.88,2.65-5.06-.03-10.25.99-15.93.96l-58.8-.25c-7.8-.03-15.1-.56-22.2-1.51-.46-1.84,2.12-1.94,3.13-3.2,1.43-1.78-.25-4.32-.08-6.14,2.31-.32,4.64,0,6.91.48Z"/>
    <path class="cls-5" d="M66.66,121.61c1.13-9.21,5.95-26.86,16.15-29.72.06,4.73-6.53,8.56-7.38,11.5l-3.63,12.47c-.84,2.87-2.03,5.73-5.14,5.75Z"/>
    <path class="cls-5" d="M231.65,99.97c-1.81,0-3.45.8-3.86,2.57-6.02,2.05,2.43,7.87-5.22,9.24-2.08-10.98-4.74-7.51-6.09-10.57-.72-1.62.18-2.89.23-4.22,2.48-.4,5,1.69,7.39,2.3,1.18-.69,2.32-2.61,3.99-2.39,2.23.29,3.72.74,3.56,3.07Z"/>
    <path class="cls-5" d="M100.7,102.99c-.53-1.38-2.27-2.72-3.87-2.53-.86-3.14,6.96-4.3,3.45-6.56-5.24-3.37-4.45,2.75-13.53-3.12,5.1-1.43,11.61-1.76,17.06,0,1.41,1.89,1.25,13.58-3.11,12.2Z"/>
    <path class="cls-5" d="M58.84,176.8c.61-5.35,1.18-25.62,3.94-29.84,1.16.5,2.01,1.14,2.52,1.9.92,1.36-.11,2.95-.37,4.28l-1.89,9.65c-.46,2.34-.39,14.42-4.2,14.02Z"/>
    <path class="cls-5" d="M81.71,229.81c-6.08-.95-13.18-.4-17.81-5.12,3.69-4.06,17.33,2.26,16.59,1.62.87.74.93,2.32,1.22,3.5Z"/>
    <path class="cls-7" d="M96.83,100.46c1.6-.18,3.34,1.15,3.87,2.53.08.2.01.45.07.66-1.39-.02-2.87.03-3.96.98-9.21-1.99-11.26,6.77-13.68,3.47-.6-.81-.14-1.78.57-2.69,3.12-4.07,8.49-4.41,13.14-4.94Z"/>
    <path class="cls-5" d="M260.8,218.01c-.82,5.92-6.04,10.43-11.99,10.61.67-1.31.47-3.85,2.05-4.91s4.58.14,5.86-1.98c1.1-1.83,2.13-3.5,4.07-3.72Z"/>
    <path class="cls-5" d="M110.65,232.57c-5.69.54-11.05-.98-16.69-1.27.23-3.78,16.18-1.59,16.19-1.59,1.06.25.61,1.71.5,2.86Z"/>
    <path class="cls-5" d="M254.27,122.65c-4.61.39-5.75-15.93-3.54-17.67,2.47,5.47,2.79,11.73,3.54,17.67Z"/>
    <path class="cls-5" d="M62.78,145.86c-.01-4.38.54-8.73,1.88-12.89,2.77.88,3.29,12.77-1.88,12.89Z"/>
    <path class="cls-5" d="M56.52,215.71c-1.17-4.23-.78-8.41-.5-12.83,4.47,1.41,1.53,9.51.5,12.83Z"/>
    <path class="cls-5" d="M225.63,89.76c1.35,3.45-6.87,2.37-9.14,3.02.13-.57-.68-1.94.31-2.55,2.99-1.84,6.13-.25,8.83-.48Z"/>
    <path class="cls-5" d="M108.62,126.69c-1.17.9-2.62,1.39-4.55.75-1.29-.43-2.25-.96-2.2-2.12.04-.89-.2-2.5,1.06-2.53,2.13.9,4.02,2.32,5.7,3.9Z"/>
    <path class="cls-5" d="M145.63,90.16c-.05,1.96-1.62,2.6-3.41,2.74-1.89.15-3.19-.61-3.32-2.64,2.22-.71,4.53.14,6.72-.1Z"/>
    <path class="cls-5" d="M218.59,121.72l3.22-6.83c2.61.22,1.3,2.49,1.24,3.78-.14,2.98-2.76,2.8-4.46,3.04Z"/>
    <path class="cls-5" d="M135.84,107.95c-1.11-1.79-2.13-3.63-2.87-5.6,1.57-.49,3.28.51,4.21,1.62,1.31,1.57.66,3.72-1.34,3.98Z"/>
    <path class="cls-5" d="M260.24,165.77c.41,1.98.06,4.04.35,5.99-1.42-.04-2.16-1.4-2.61-2.75-.51-1.52.53-3.07,2.26-3.24Z"/>
    <path class="cls-5" d="M181.6,90.61c-.52,1.23-1.83,1.9-3.19,1.77-1.24-.12-2.65-.75-2.79-2.17,2.19-.79,4-.1,5.98.41Z"/>
    <path class="cls-5" d="M100.77,103.65c.57,2-1.49,3.32-1.97,4.97-.9-1.2-1.66-2.51-1.99-3.99,1.09-.94,2.57-.99,3.96-.98Z"/>
    <path class="cls-5" d="M128.68,125.85c-.3,1.36-.33,2.49-1.78,2.88-1.69.46-3.31.45-4.21-1.02,1.54-1.59,3.84-1.97,5.99-1.86Z"/>
    <path class="cls-5" d="M133.96,119.6c.25-1.16,1.05-2.71,1.62-3.71.4.11,1.33-.28,1.67-.04.76.54-.24,1.82-.1,3.15-.57.55-2.24.3-3.18.6Z"/>
    <path class="cls-5" d="M101.48,120.59c-1.16.26-2.28-.24-3.12-.91-1.72-1.38.35-2.59.6-3.73,1.27,1.28,1.72,3.07,2.52,4.64Z"/>
    <path class="cls-5" d="M241.73,93.83c-.17,1.36-1.67,1.01-2.62,1.13-2.16.26-1.5-1.7-1.34-3.14,1.06.72,3.57-.03,3.96,2.01Z"/>
    <path class="cls-5" d="M172.69,89.84c.32,1.51-.2,2.01-1.49,2.07-1.83.08-2.99-.16-2.5-2.1,1.33.01,2.67.13,4,.04Z"/>
    <path class="cls-5" d="M259.48,157.65c.14.98-.13,2.2.19,3.12-.42-.08-1.15.19-1.54-.02-.8-.44-.58-1.58-.47-2.44.07-.57,1.13-1.02,1.82-.67Z"/>
    <path class="cls-5" d="M64.72,129.8c-.12-1.05.7-2.2.79-3,1.23-.27,1.21.63,1.31,1.5.16,1.47-.85,1.76-2.1,1.49Z"/>
    <path class="cls-5" d="M262.63,202.73v3c-.41-.08-1.13.19-1.5-.02-.79-.44-.59-1.56-.47-2.46.1-.71,1.29-.59,1.96-.52Z"/>
    <path class="cls-5" d="M116.73,127.8c-.08.41.19,1.15-.02,1.5-.46.79-1.58.6-2.46.46-.73-.12-.57-1.33-.52-2,.97.11,2.03.04,3,.03Z"/>
    <path class="cls-5" d="M183.74,109.82l.06,3-1.51-.2c-.93-.12-.74-1.49-.56-2.26.12-.53,1.43-.35,2.01-.54Z"/>
    <path class="cls-5" d="M189.84,93.86c-.76.13-1.78.08-2.04-.67-.3-.85-.16-1.7-.12-2.43.58.38,1.82-.13,1.91.74l.25,2.36Z"/>
    <path class="cls-5" d="M255.64,129.8c-.45-.04-.99.13-1.48,0-.55-.16-.73-.76-.38-1.3.26-.39.97-.47,1.22-.69.86.34.54,1.3.64,2Z"/>
    <path class="cls-5" d="M220.78,233.55l-2.12.15c.05-.48-.16-1.07,0-1.49.21-.53.86-.77,1.46-.51s1,1.18.65,1.85Z"/>
    <path class="cls-5" d="M250.5,175.01c.29,1.3,1.19,3.3.95,4.6-.59-.36-1.3-.06-1.74.61,1.52-2.27,1.11,11.05-3.91,15.57-6.99,6.3-16.17,6.62-25.22,7.11-10.85.59-22.43-1.4-29.68-10.56-7.66-9.68-7.45-25.23.14-34.99,8.29-10.66,21.63-14.47,34.66-12.58,9.77,1.42,18.27,8.11,21.61,17.33,1.68,4.63.19,13.46,3.19,12.89ZM241.9,173c0-3.42-2.77-6.19-6.19-6.19s-6.19,2.77-6.19,6.19,2.77,6.19,6.19,6.19,6.19-2.77,6.19-6.19ZM205.14,182.42c4.44.07,6.68-3.79,6.41-7.05-.29-3.4-2.77-6.83-6.84-6.5s-5.98,3.86-5.83,7.35c.11,2.65,2.38,6.13,6.26,6.2ZM226.6,192.06c1.13-.17,1.5-1.37,1.54-1.8.3-3.07-14.74-1.28-13.78,1.85.25.81,1.11,1.66,2.32,1.48l9.92-1.53Z"/>
    <path class="cls-9" d="M217.59,140.56c3.81-.36,9.15-.25,12.88,1.4,5.04,2.23,10.37,5.34,14.47,9.34,4.55,4.44,5.44,11.24,5.54,11.46,1.15,2.68-2.66,9.76.17,9.99-.33.6.1,1.6-.14,2.25-3,.57-1.52-8.26-3.19-12.89-3.33-9.21-11.84-15.9-21.61-17.33-13.02-1.9-26.37,1.91-34.66,12.58-7.59,9.77-7.81,25.31-.14,34.99,7.25,9.15,18.83,11.15,29.68,10.56,9.05-.5,18.23-.81,25.22-7.11,5.03-4.53,5.43-17.84,3.91-15.57.45-.67,1.16-.97,1.74-.61-1.7,2.94.04,4.89.85,7.16,1.34,3.74-1.58,10.02-4.8,12.77-3.42,2.92-9.12,3.66-13.13,5.21-.48.19-1.07.22-1.58.31-1.78.3-22.45,1.14-24.84.45-5.08-1.47-9.77-3.15-14.14-5.51-4.82-2.61-7.42-9.49-9.21-9.35-.12-3.4-1.29-6.86-2.82-9.89-1.01-12.29,1.73-25.43,12.17-31.92l6.57-4.09c1.74-1.09,5.76-.55,7.21-2.76,1.17.55,2.95-.8,3.92-.89l5.93-.55Z"/>
    <path class="cls-5" d="M232.8,205.06c-1.51,5.5-17.5,5.09-18.51,6.7-3.72,5.91,10.33.46,12.24,1.84.04,2,.58,3.99.95,5.98l-7.58.39c-3.11.16-6.65-.39-9.91,1.07-.99.44.28,2.58.7,2.81,4.27.52-16.89,2.89-10.14.17,1.78.25,5.04-.78,4.81-3.22-.12-1.29-2.32-1.13-3.78-1.43l.34-5.66c2.83-.55,6.21,2.09,7.16.28.24-.45.43-1.72-.46-1.99l-7.12-2.2c-.7-3.7-3.26-6.15-6.64-6.12-.68-.99-1.33-2.36-1.02-3.67,4.37,2.36,9.06,4.04,14.14,5.51,2.39.69,23.05-.15,24.84-.45Z"/>
    <path class="cls-8" d="M234.38,204.75c.04,1.39.6,3.6-.79,4.89-2.15,1.98-5.23,2.03-7.06,3.97-1.91-1.38-15.96,4.07-12.24-1.84,1.02-1.62,17-1.2,18.51-6.7.51-.09,1.1-.12,1.58-.31Z"/>
    <path class="cls-8" d="M125.6,218.83l1.02-.13c.98.46,2.01.85,3.09,1.01s2.34.18,3.17,1.26c.5.65.28,1.77-.36,2.13-1.03.59-1.94.76-2.93.93-2.27-.48-4.59-.81-6.91-.48l-5.84-2.01c.1-.51-.2-1.18-.03-1.66.19-.43.87-.68,1.12-1.1,2.55-.11,5.11.37,7.65.05Z"/>
    <path class="cls-8" d="M179.68,224.54c-1.3-.01-2.71.4-4,.09-3.45-.82-7.9,1.08-10.68-3.13,6.06-1.31,11.9-1.59,17.14-.27.99.25.28,2.5-.7,2.5-.48,0-1.07.64-1.77.81Z"/>
    <path class="cls-8" d="M145.71,219.84c3.46,1.06,7.1.31,11.32,1.87-.59,2.65-2.77,2.57-4.33,2.93-.64.15-1.35-.13-2-.04-1.43-.48-3.64-.56-5-.02l-1.93-.06c-.37-.01-.84-.27-1.15-.34-.61-.99-.85-2.13-1.03-3.26.37.06,1.05-.59,1.12-.96.94.17,2.08-.39,2.99-.11Z"/>
    <path class="cls-9" d="M149.71,103.7c-2,.15-4,.16-6,.1-1.04-.03-2.05-.03-3.1-.31-1.13-.3-.85-1.78-.34-2.52.39-.55,2.23-.74,2.52-1.42,2.2.73,4.67.06,6.65-.51,1.42-.41,5.28.53,5.63,1.95.63,2.55-4.1,2.01-5.36,2.72Z"/>
    <path class="cls-8" d="M201.91,213.71c-3.35-2.68-7.51-5.49-7.07-10.03,3.37-.03,5.93,2.42,6.64,6.12l7.12,2.2c.89.27.7,1.54.46,1.99-.95,1.81-4.32-.84-7.16-.28Z"/>
    <path class="cls-9" d="M99.74,216.86c3.13,2.04,11.03.06,9.9,4.61l-3.08.57-11.5-1.48c-.18-1.25-.74-2.62.68-3.15,1.24-.46,2.79-.18,4-.56Z"/>
    <path class="cls-7" d="M201.58,219.37c1.46.3,3.66.14,3.78,1.43.23,2.44-3.03,3.47-4.81,3.22-3.36-.47-6.92.71-10.9-1.31,3.33-4.03,8.02-2.42,11.93-3.34Z"/>
    <path class="cls-8" d="M168.76,98.84c3.23.22,6.49.63,9.71.19.3,1.16.74,2.84-.49,3.39-1.08.47-2.22.36-3.3.41h-4c-1.68-.26-4.2.38-4.84-1.35s1.98-2.33,2.91-2.63Z"/>
    <path class="cls-9" d="M77.9,129.74c-.14-1.65-.07-3.3.14-4.94,1.64-2.51.88-5.93,5-6.35.24,3.25-.66,12.49-3.69,12.26-.49-.04-1.04-.55-1.46-.98Z"/>
    <path class="cls-8" d="M244.55,144.39c-1.78-.45-5.46-10.81-2.21-11.92,2.76-.95,4.81,8.96,2.21,11.92Z"/>
    <path class="cls-9" d="M240.61,124.26c-3.63-3.03-4.72-8.67-2.03-12.82,2.74,3.63,4.06,8.06,2.03,12.82Z"/>
    <path class="cls-9" d="M73.53,182.84l.22,1.9v2c-.05,3.22-.5,5.57-1.3,7.83-3.87-.33-2.36-4.32-2.95-7.65.51-2.06.98-3.19,1.53-4.27.82.16,1.66.22,2.5.19Z"/>
    <path class="cls-9" d="M73.62,211.4c.68.27,1.51,1,2.2,1.38-.21,1.22-.51,2.68-1.85,3.04l-2.33-.39c-.81-1.58-1.93-3.13-3.65-3.74-.84-1.79-.45-4.09.19-5.8,4.31-.08,1.09,5.17,5.44,5.51Z"/>
    <path class="cls-8" d="M74.76,150.93c-.57-1.03-1.5-2.87-.95-4.1,1.05-2.35-.2-5.46,2.86-7.48,2.43,4.02,2.24,10.26-1.91,11.58Z"/>
    <path class="cls-5" d="M71.86,161.95c.5,2.83-1.83,10.46,2.51,9.94-.33.84.14,3.87-1.63,3.66-3.02-.81-5.62-14.07-.88-13.6Z"/>
    <path class="cls-5" d="M75.81,169.55c-.42-2.2.74-7.25-.92-8.41-.52-.36-1.36-.4-2.07-.45-.11-3.24,3.76-1.64,5.13-.69,2.16,1.49,1.54,3.78,1.07,6.01s-1.26,3.46-3.21,3.54Z"/>
    <path class="cls-7" d="M75.81,169.55c-.5.73-1.11,1.52-1.43,2.34-4.34.52-2.01-7.12-2.51-9.94.15-.4.97-.81.95-1.25.71.05,1.55.09,2.07.45,1.66,1.15.5,6.21.92,8.41Z"/>
    <path class="cls-8" d="M219.9,219.97l-.06,1.72c-1.23.46-1.98,1.56-3.03,2.26-1.84.1-4.35-.38-6.12-.09-.42-.23-1.68-2.37-.7-2.81,3.26-1.46,6.8-.92,9.91-1.07Z"/>
    <path class="cls-5" d="M106.57,222.04c.42,3.17-8.65,2.66-10.35,1.72-1.06-.59-.97-1.91-1.16-3.19l11.5,1.48Z"/>
    <path class="cls-8" d="M231.65,99.97c.91,1.37,4.92,2.05,5.11,3.46.13.96-.29,1.85-.83,2.12-2.55,1.3-5.16-2.82-8.13-3.01.4-1.77,2.05-2.57,3.86-2.57Z"/>
    <path class="cls-5" d="M69.5,186.92c.59,3.33-.92,7.33,2.95,7.65.2,1.13.66,1.75.4,2.2-.42.72-1.17,1.05-1.66.99-.41-.04-4.92-3.92-4.71-7.48.09-1.58.84-3.22,3.03-3.37Z"/>
    <path class="cls-8" d="M249.56,208.87c-.18,3.23-2.04,6.22-4.92,7.75l-2.9-.04,5.13-7.82,2.69.11Z"/>
    <path class="cls-5" d="M252.46,204.61c-.37-1.02.35-2.84-.54-3.91-.77-.92-3.21-.14-4.41-1.16,3.23-2.75,6.15-9.03,4.8-12.77,6.22-1.66-1.6,11.15.56,13.38.69.66,2.65.99,2.8,2.04.12.83-.02,1.64-.96,2.03-.52.21-1.64-.02-2.24.4Z"/>
    <path class="cls-5" d="M178.48,99.03c-3.22.45-6.48.04-9.71-.19,1.22-5.12,10.06-3.35,10.42-1.37.11.58-.6,1.12-.71,1.55Z"/>
    <path class="cls-5" d="M230.47,141.96c-3.73-1.65-9.07-1.76-12.88-1.4-1.28-4.27,15.75-2.49,12.88,1.4Z"/>
    <path class="cls-7" d="M227.48,219.59c.17.93,1.83,1.78.49,2.99-.52.47-1.66.65-2.35,1.08-2.09-.11-4.12-.65-5.78-1.96l.06-1.72,7.58-.39Z"/>
    <path class="cls-5" d="M81.53,215.93c-.58.81-.53,1.82-.08,2.68-2.48,1.16-5.89-.46-7.47-2.79,1.34-.36,1.63-1.82,1.85-3.04l5.71,3.15Z"/>
    <path class="cls-5" d="M73.62,211.4c-4.35-.34-1.13-5.59-5.44-5.51.29-.77.06-2.72,1.13-2.73.95,0,2.28.5,3.22,1.16,2.24,1.59.84,4.82,1.09,7.07Z"/>
    <path class="cls-1" d="M252.46,204.61c-.53.36-1.03,1.2-1.75,1.26-.9-.52-1.83-.98-2.82-1.31.94-1.23-.45-3.71-.38-5.02,1.19,1.03,3.64.24,4.41,1.16.89,1.07.17,2.89.54,3.91Z"/>
    <path class="cls-5" d="M184.62,190.66c-3.19.27-6.23-10.34-2.82-9.89,1.54,3.02,2.7,6.48,2.82,9.89Z"/>
    <path class="cls-5" d="M116.83,219.88c-.17.48.13,1.15.03,1.66-2.19,1.45-5.12,1.59-7.21-.07,1.13-4.55-6.77-2.58-9.9-4.61.01-3.64,8.23-1.06,8.94-.19,2.29,2.8,4.86,3.89,8.15,3.22Z"/>
    <path class="cls-9" d="M81.44,218.62c-.44-.87-.49-1.87.08-2.68,2.35-1.13,5.58-.81,7.59,1.82-2.45,2.46-5.6-.11-7.67.87Z"/>
    <path class="cls-5" d="M250.64,172.76c-2.83-.23.98-7.31-.17-9.99,4.39-1.75,1.09,8.33.17,9.99Z"/>
    <path class="cls-5" d="M200.53,144.77l-6.57,4.09c-.35-1.75.27-3.45,1.8-4.34s3.38-.83,4.77.25Z"/>
    <path class="cls-5" d="M125.6,218.83c-2.55.32-5.1-.16-7.65-.05-.13-2.51,1.77-3.19,4.3-3.08,1.55.07,2.55,1.59,3.35,3.13Z"/>
    <path class="cls-5" d="M225.62,223.66c-.17,4.17-2.47.08-6.35,1.67-.92.38-1.74.44-2.14-.19-.2-.32-.26-.78-.32-1.19,1.06-.7,1.81-1.8,3.03-2.26,1.66,1.31,3.69,1.85,5.78,1.96Z"/>
    <path class="cls-8" d="M241.34,217.81c-.06.34.21.72.19,1.06-.29,1.42-1.51,2.03-2.6,2.36-.94.29-3.26,0-2.96-1.54.45-2.31,3.79-1.98,5.37-1.89Z"/>
    <path class="cls-5" d="M149.44,99.03c-1.98.58-4.45,1.25-6.65.51.52-1.58,1.49-2.82,3.42-2.67,1.28.1,2.22,1.34,3.23,2.16Z"/>
    <path class="cls-5" d="M71.64,215.44c-1.13.6-2.16.87-3,.68-1.03-.23-2.55-.77-2.13-2,.34-.98.75-1.83,1.48-2.42,1.72.61,2.84,2.16,3.65,3.74Z"/>
    <path class="cls-5" d="M73.81,146.83c-.55,1.23.38,3.06.95,4.1-.37,2.4-1.69,1.19-2.32.5-1.09-1.21-1.82-2.42-1.47-3.12.62-1.24,1.9-1.43,2.84-1.47Z"/>
    <path class="cls-5" d="M141.6,220.91c.18,1.13.42,2.27,1.03,3.26-1.2-.27-4.3.37-4.7-1.52s2.61-1.9,3.68-1.75Z"/>
    <path class="cls-5" d="M250.71,205.87c.25,1.11-.86,2.15-1.15,3l-2.69-.11c.79-1.2-.01-2.84,1.02-4.19.99.32,1.92.78,2.82,1.31Z"/>
    <path class="cls-5" d="M149.71,103.7c-.34,1.75-1.23,2.64-3.56,2.29-1.17-.18-2.49-.46-2.45-2.18,2,.06,4,.05,6-.1Z"/>
    <path class="cls-5" d="M78.04,124.8c-.21,1.64-.28,3.29-.14,4.94-2.61.32-2.32-1.83-2.22-3.5.07-1.17,1.1-1.55,2.36-1.44Z"/>
    <path class="cls-5" d="M73.53,182.84c-.84.03-1.68-.04-2.5-.19.17-1.25.63-2.5,1.2-2.45s2.13.51,2.39,1.1c.2.45-1.08,1.3-1.09,1.54Z"/>
    <path class="cls-5" d="M211.66,141.12c-.97.09-2.75,1.44-3.92.89-.35-1.4-.11-2.42,1.41-2.27,1.22.12,2.83-.36,2.51,1.38Z"/>
    <path class="cls-5" d="M174.69,102.82c-.14,1.91-1.24,2.21-2.51,2.12-1.03-.07-1.25-1.29-1.49-2.12h4Z"/>
    <path class="cls-5" d="M179.68,224.54c.23,1.74-.77,2.34-2.51,2.25-1.34-.07-1.8-.65-1.49-2.16,1.29.31,2.7-.11,4-.09Z"/>
    <path class="cls-5" d="M244.64,216.62c-.04.7-.23,1.56-.78,1.87-.76.43-1.58.36-2.33.38.01-.34-.25-.73-.19-1.06.07-.41.18-.9.4-1.23l2.9.04Z"/>
    <path class="cls-5" d="M145.71,219.84c-.91-.28-2.05.28-2.99.11.1-.6-.28-2.02.49-2.2.84-.2,2.11-.29,2.47.46.22.45-.07,1.19.02,1.63Z"/>
    <path class="cls-5" d="M129.72,219.71c-1.08-.16-2.11-.55-3.09-1.01-.29-1.32,1.55-1.16,2.58-.95.74.15.55,1.3.51,1.96Z"/>
    <path class="cls-5" d="M73.75,186.74v-2c1.13.02,1.75.09,2.01.5.37.58-.03,1.2-.57,1.31-.35.08-.81.14-1.44.19Z"/>
    <path class="cls-5" d="M152.7,224.64c.03.7.28,1.65-.5,2.07-.58.31-1.31.06-1.37-.56l-.13-1.54c.65-.09,1.36.19,2,.04Z"/>
    <path class="cls-5" d="M145.71,224.58c-.48.26.35,1.91-.5,2.14-.72.2-1.41-.1-1.49-.55-.11-.61.04-1.2.06-1.66l1.93.06Z"/>
    <path class="cls-9" d="M201.22,70.76l2.85,16.46c1.12,6.49-5.65,2.83-5.06-16.61.02-.58,2.02-.96,2.21.15Z"/>
    <path class="cls-8" d="M120.7,76.33c.87,4.62-.02,9.58-3.18,14.34-4.24-2.58,1.28-24.39,2.57-17.58l.61,3.25Z"/>
    <path class="cls-8" d="M178.14,21.14c-2.2,2.98-5.22-3.56-11.53-5.17-1.14-.29-1.95-.74-1.91-1.58.23-4.66,15.64,3.78,13.44,6.75Z"/>
    <path class="cls-8" d="M185.46,29.01c1.43,3.18,6.99,10.97,4.56,12.46s-8.82-12.63-6.73-13.11c.61-.14,1.73-.33,2.17.66Z"/>
    <path class="cls-8" d="M192.64,47.77c2.32,2.23,6.51,12.25,3.36,13.35-1.88.65-6.06-11.85-3.36-13.35Z"/>
    <path class="cls-9" d="M125.53,51.4c.59,5.21-.1,10.44-3.74,13.95-3.27-.12,2.14-18,3.74-13.95Z"/>
    <path class="cls-9" d="M133.22,29.72c3.55.38-2.44,11.9-4.53,13.54-3.01-2.29,2.64-13.75,4.53-13.54Z"/>
    <path class="cls-9" d="M144.79,16.31c3.96-1.31-3.65,9.36-7.46,7.56.98-3.46,3.88-6.37,7.46-7.56Z"/>
    <path class="cls-9" d="M157.91,13.39c.25,1.34-7.57,5.77-7.8,1.57-.61-1.18,7.17-4.91,7.8-1.57Z"/>
    <path class="cls-7" d="M205.14,182.42c-3.87-.07-6.15-3.55-6.26-6.2-.15-3.49,1.81-7.02,5.83-7.35s6.55,3.1,6.84,6.5c.27,3.26-1.97,7.12-6.41,7.05Z"/>
    <circle class="cls-7" cx="235.7" cy="173" r="6.19"/>
    <path class="cls-9" d="M226.6,192.06l-9.92,1.53c-1.22.19-2.07-.67-2.32-1.48-.96-3.13,14.09-4.92,13.78-1.85-.04.43-.4,1.63-1.54,1.8Z"/>
  </g>
</svg>